<svg xmlns="http://www.w3.org/2000/svg" id="Capa_2" data-name="Capa 2" viewBox="0 0 381.95 154.56"><defs><style>      .cls-1 {        fill: #e8d5c5;        stroke-width: 0px;      }    </style></defs><g id="Capa_1-2" data-name="Capa 1"><g><polygon class="cls-1" points="5.84 86.52 5.84 72.36 0 72.36 0 69.57 14.79 69.57 14.79 72.36 9.01 72.36 9.01 86.52 5.84 86.52"></polygon><rect class="cls-1" x="27.19" y="69.57" width="3.17" height="16.95"></rect><polygon class="cls-1" points="44.06 86.52 44.06 69.57 56.78 69.57 56.78 72.36 47.24 72.36 47.24 76.45 55.81 76.45 55.81 79.24 47.24 79.24 47.24 83.74 56.95 83.74 56.95 86.52 44.06 86.52"></polygon><polygon class="cls-1" points="69.61 86.52 69.61 69.57 72.73 69.57 78.76 78.73 78.81 78.73 85.01 69.57 88.08 69.57 88.08 86.52 84.91 86.52 84.91 75.1 79.97 82.26 77.57 82.26 72.71 75.1 72.71 86.52 69.61 86.52"></polygon><path class="cls-1" d="M101.78,86.52v-16.95h7.65c1.24,0,2.3.23,3.18.68.88.45,1.55,1.1,2.02,1.95.47.85.7,1.87.7,3.06s-.24,2.24-.73,3.12c-.48.89-1.17,1.57-2.06,2.05-.89.48-1.94.71-3.15.71h-4.48l.02,5.37h-3.17ZM104.96,78.36h4.02c1,0,1.77-.25,2.31-.75.54-.5.81-1.27.81-2.3s-.27-1.82-.81-2.27c-.54-.45-1.31-.68-2.31-.68h-4.02v6Z"></path><path class="cls-1" d="M135.61,86.77c-1.74,0-3.26-.37-4.55-1.1-1.29-.73-2.29-1.75-3-3.06-.71-1.31-1.07-2.83-1.07-4.58s.36-3.24,1.09-4.55c.73-1.31,1.74-2.32,3.04-3.05,1.3-.73,2.8-1.09,4.49-1.09s3.28.37,4.58,1.1c1.29.73,2.29,1.75,3,3.06.71,1.31,1.07,2.83,1.07,4.55s-.36,3.24-1.09,4.55c-.73,1.31-1.74,2.33-3.04,3.06-1.3.73-2.8,1.1-4.52,1.1M135.61,83.84c1.08,0,2.02-.22,2.83-.67.81-.44,1.44-1.1,1.89-1.97.45-.87.68-1.93.68-3.17s-.22-2.29-.67-3.15c-.44-.86-1.07-1.51-1.88-1.95-.81-.44-1.76-.67-2.86-.67s-2,.22-2.81.67c-.81.44-1.44,1.09-1.89,1.95-.45.86-.68,1.91-.68,3.17s.22,2.3.67,3.16c.44.86,1.07,1.52,1.88,1.96.81.44,1.75.67,2.83.67"></path><path class="cls-1" d="M230.78,86.72c-1.65,0-3.12-.33-4.41-.98-1.29-.65-2.31-1.63-3.06-2.92-.75-1.29-1.12-2.89-1.12-4.79,0-1.4.23-2.64.68-3.72.45-1.07,1.08-1.98,1.88-2.72s1.73-1.3,2.8-1.68c1.07-.38,2.2-.57,3.41-.57.87,0,1.72.09,2.54.27.82.18,1.6.4,2.32.68l.46.19-.61,2.44-.65-.12c-.73-.13-1.4-.25-2.01-.36-.61-.11-1.24-.17-1.89-.17-1.11,0-2.1.21-2.95.63-.86.42-1.53,1.05-2.01,1.9-.48.85-.73,1.92-.73,3.21s.23,2.39.68,3.24c.45.86,1.09,1.49,1.92,1.91.83.42,1.81.63,2.94.63.61,0,1.26-.06,1.92-.17.67-.11,1.38-.26,2.12-.44l1.09-.29.6,2.42-.75.31c-.82.36-1.68.63-2.57.81-.89.18-1.76.28-2.61.28"></path><path class="cls-1" d="M247.29,86.52l6.59-16.95h3.68l6.64,16.95h-3.49l-4.96-13.56h-.08l-5.08,13.56h-3.3ZM251.39,80.37h8.62v2.79h-8.62v-2.79Z"></path><path class="cls-1" d="M276.12,86.52v-16.95h7.65c1.24,0,2.3.23,3.18.68.88.45,1.55,1.1,2.02,1.95.47.85.7,1.87.7,3.06s-.24,2.24-.73,3.12c-.48.89-1.17,1.57-2.06,2.05-.89.48-1.94.71-3.15.71h-4.48l.02,5.37h-3.17ZM279.3,78.36h4.02c1,0,1.77-.25,2.31-.75.54-.5.81-1.27.81-2.3s-.27-1.82-.81-2.27c-.54-.45-1.31-.68-2.31-.68h-4.02v6Z"></path><rect class="cls-1" x="302.23" y="69.57" width="3.17" height="16.95"></rect><polygon class="cls-1" points="323.66 86.52 323.66 72.36 317.82 72.36 317.82 69.57 332.61 69.57 332.61 72.36 326.83 72.36 326.83 86.52 323.66 86.52"></polygon><path class="cls-1" d="M341.04,86.52l6.59-16.95h3.68l6.63,16.95h-3.49l-4.96-13.56h-.07l-5.09,13.56h-3.29ZM345.13,80.37h8.62v2.79h-8.62v-2.79Z"></path><polygon class="cls-1" points="369.85 86.52 369.85 69.57 373.02 69.57 373.02 83.74 381.95 83.74 381.95 86.52 369.85 86.52"></polygon><path class="cls-1" d="M208.72,30.54c0-1.1-.89-1.99-1.99-1.99h-51.09l-7.08,9,29.66,38.83-57.55,74.99c-.67.87-.51,2.12.37,2.79.85.65,2.14.48,2.79-.37l59.41-77.4-29.64-38.8,3.98-5.05h49.16c1.1,0,1.99-.89,1.99-1.99"></path><path class="cls-1" d="M247.38.41c-.42-.32-.94-.47-1.47-.4-.53.07-.99.34-1.32.76l-58.65,76.29,29.64,38.8-3.98,5.05h-49.16c-1.1,0-1.99.89-1.99,1.99s.89,1.99,1.99,1.99h51.1l7.08-8.99-29.66-38.83L247.74,3.2c.67-.87.51-2.12-.36-2.79"></path></g></g></svg>